<?xml version="1.0" encoding="UTF-8" standalone="no"?>
<!-- Created with Inkscape (http://www.inkscape.org/) -->

<svg
   xmlns:dc="http://purl.org/dc/elements/1.1/"
   xmlns:cc="http://creativecommons.org/ns#"
   xmlns:rdf="http://www.w3.org/1999/02/22-rdf-syntax-ns#"
   xmlns:svg="http://www.w3.org/2000/svg"
   xmlns="http://www.w3.org/2000/svg"
   version="1.1"
   width="309.63126"
   height="56.953751"
   id="svg3023"
   xml:space="preserve"><metadata
     id="metadata3029"><rdf:RDF><cc:Work
         rdf:about=""><dc:format>image/svg+xml</dc:format><dc:job_type
           rdf:resource="http://purl.org/dc/dcmitype/StillImage" /><dc:title></dc:title></cc:Work></rdf:RDF></metadata><defs
     id="defs3027"><clipPath
       id="clipPath3039"><path
         d="M 0,0 401,0 401,46 0,46 0,0 z"
         id="path3041" /></clipPath><clipPath
       id="clipPath3067"><path
         d="m 0,0 400.715,0 0,45.563 L 0,45.563 0,0 z"
         id="path3069" /></clipPath><clipPath
       id="clipPath3077"><path
         d="M 0,0 401,0 401,46 0,46 0,0 z"
         id="path3079" /></clipPath></defs><g
     id="layer2"><rect
       width="310.16998"
       height="57.055958"
       x="0"
       y="-0.10220814"
       id="rect4114"
       style="fill:#1b2c4f;fill-opacity:1" /></g><g
     transform="matrix(1.25,0,0,-1.25,-191.2625,56.95375)"
     id="g3031"><g
       id="g3033" /><path
       d="m 168.257,30.242 c -0.291,0.468 -0.654,0.878 -1.091,1.232 -0.437,0.353 -0.931,0.629 -1.481,0.826 -0.551,0.198 -1.128,0.296 -1.731,0.296 -1.102,0 -2.037,-0.213 -2.806,-0.639 -0.77,-0.426 -1.393,-0.997 -1.871,-1.715 -0.479,-0.717 -0.826,-1.533 -1.045,-2.448 -0.218,-0.915 -0.327,-1.86 -0.327,-2.837 0,-0.935 0.109,-1.845 0.327,-2.728 0.219,-0.884 0.566,-1.679 1.045,-2.386 0.478,-0.707 1.101,-1.273 1.871,-1.699 0.769,-0.426 1.704,-0.639 2.806,-0.639 1.497,0 2.666,0.457 3.508,1.372 0.842,0.914 1.356,2.12 1.543,3.617 l 4.74,0 c -0.125,-1.393 -0.447,-2.651 -0.967,-3.773 -0.519,-1.123 -1.205,-2.079 -2.058,-2.869 -0.852,-0.79 -1.85,-1.392 -2.993,-1.808 -1.144,-0.416 -2.401,-0.624 -3.773,-0.624 -1.704,0 -3.238,0.296 -4.599,0.889 -1.362,0.592 -2.51,1.408 -3.445,2.447 -0.936,1.039 -1.653,2.261 -2.152,3.664 -0.499,1.403 -0.748,2.915 -0.748,4.537 0,1.663 0.249,3.207 0.748,4.63 0.499,1.424 1.216,2.666 2.152,3.727 0.935,1.06 2.083,1.891 3.445,2.494 1.361,0.603 2.895,0.904 4.599,0.904 1.227,0 2.385,-0.176 3.477,-0.53 1.091,-0.353 2.068,-0.868 2.931,-1.543 0.862,-0.676 1.575,-1.512 2.136,-2.51 0.561,-0.998 0.914,-2.142 1.06,-3.43 l -4.74,0 c -0.083,0.561 -0.27,1.075 -0.561,1.543"
       id="path3045"
       style="fill:#ffffff;fill-opacity:0.94117647;fill-rule:nonzero;stroke:none" /><path
       d="m 185.329,21.418 c -0.281,-0.094 -0.582,-0.171 -0.905,-0.234 -0.322,-0.062 -0.66,-0.114 -1.013,-0.156 -0.354,-0.042 -0.707,-0.093 -1.06,-0.155 -0.333,-0.063 -0.66,-0.146 -0.982,-0.25 -0.323,-0.104 -0.603,-0.245 -0.842,-0.421 -0.239,-0.177 -0.432,-0.401 -0.577,-0.67 -0.146,-0.271 -0.219,-0.614 -0.219,-1.03 0,-0.395 0.073,-0.727 0.219,-0.997 0.145,-0.271 0.343,-0.483 0.592,-0.639 0.25,-0.156 0.541,-0.265 0.874,-0.328 0.332,-0.062 0.675,-0.093 1.028,-0.093 0.873,0 1.549,0.145 2.027,0.436 0.478,0.291 0.831,0.64 1.06,1.045 0.229,0.405 0.369,0.815 0.421,1.231 0.052,0.416 0.078,0.749 0.078,0.998 l 0,1.653 c -0.187,-0.167 -0.421,-0.296 -0.701,-0.39 z m -8.746,6.252 c 0.457,0.686 1.039,1.236 1.746,1.652 0.706,0.416 1.501,0.712 2.385,0.889 0.883,0.176 1.772,0.265 2.666,0.265 0.81,0 1.632,-0.057 2.463,-0.171 0.831,-0.115 1.591,-0.339 2.276,-0.671 0.686,-0.333 1.248,-0.795 1.684,-1.387 0.437,-0.593 0.655,-1.378 0.655,-2.354 l 0,-8.388 c 0,-0.728 0.042,-1.424 0.125,-2.089 0.083,-0.666 0.228,-1.165 0.436,-1.497 l -4.49,0 c -0.083,0.25 -0.151,0.504 -0.202,0.764 -0.053,0.259 -0.089,0.525 -0.11,0.795 -0.707,-0.728 -1.538,-1.237 -2.494,-1.528 -0.956,-0.291 -1.933,-0.436 -2.931,-0.436 -0.77,0 -1.487,0.093 -2.152,0.28 -0.665,0.187 -1.247,0.478 -1.746,0.874 -0.498,0.394 -0.889,0.893 -1.169,1.496 -0.281,0.603 -0.421,1.32 -0.421,2.151 0,0.915 0.161,1.669 0.483,2.261 0.322,0.593 0.738,1.065 1.248,1.419 0.508,0.353 1.091,0.618 1.746,0.795 0.655,0.176 1.314,0.316 1.98,0.421 0.665,0.104 1.32,0.187 1.964,0.249 0.644,0.063 1.216,0.156 1.715,0.281 0.499,0.125 0.893,0.306 1.185,0.546 0.291,0.238 0.426,0.587 0.405,1.044 0,0.478 -0.078,0.858 -0.234,1.138 -0.155,0.281 -0.363,0.499 -0.623,0.655 -0.26,0.156 -0.562,0.26 -0.904,0.312 -0.344,0.052 -0.713,0.078 -1.107,0.078 -0.873,0 -1.559,-0.187 -2.058,-0.561 -0.5,-0.374 -0.791,-0.998 -0.874,-1.871 l -4.427,0 c 0.062,1.039 0.322,1.902 0.78,2.588"
       id="path3047"
       style="fill:#ffffff;fill-opacity:0.94117647;fill-rule:nonzero;stroke:none" /><path
       d="m 193.389,36.182 4.427,0 0,-22.263 -4.427,0 0,22.263 z"
       id="path3049"
       style="fill:#ffffff;fill-opacity:0.94117647;fill-rule:nonzero;stroke:none" /><path
       d="m 200.81,36.182 4.427,0 0,-22.263 -4.427,0 0,22.263 z"
       id="path3051"
       style="fill:#ffffff;fill-opacity:0.94117647;fill-rule:nonzero;stroke:none" /><path
       d="m 208.231,30.04 4.428,0 0,-16.121 -4.428,0 0,16.121 z m 0,6.142 4.428,0 0,-3.648 -4.428,0 0,3.648 z"
       id="path3053"
       style="fill:#ffffff;fill-opacity:0.94117647;fill-rule:nonzero;stroke:none" /><path
       d="m 219.253,17.926 c 0.198,-0.343 0.453,-0.624 0.764,-0.842 0.312,-0.218 0.671,-0.38 1.075,-0.483 0.407,-0.105 0.826,-0.156 1.264,-0.156 0.311,0 0.639,0.036 0.982,0.109 0.342,0.073 0.655,0.187 0.936,0.343 0.28,0.156 0.514,0.363 0.701,0.624 0.188,0.259 0.28,0.586 0.28,0.981 0,0.666 -0.442,1.165 -1.325,1.497 -0.884,0.333 -2.115,0.665 -3.695,0.998 -0.645,0.145 -1.274,0.317 -1.886,0.515 -0.614,0.197 -1.159,0.457 -1.638,0.779 -0.478,0.322 -0.862,0.728 -1.153,1.216 -0.291,0.488 -0.436,1.086 -0.436,1.793 0,1.039 0.203,1.891 0.607,2.557 0.406,0.665 0.941,1.19 1.606,1.575 0.665,0.384 1.414,0.654 2.246,0.81 0.831,0.156 1.683,0.234 2.556,0.234 0.873,0 1.721,-0.083 2.541,-0.249 0.822,-0.167 1.555,-0.448 2.199,-0.842 0.644,-0.395 1.18,-0.92 1.606,-1.575 0.426,-0.655 0.681,-1.481 0.764,-2.479 l -4.209,0 c -0.063,0.853 -0.385,1.429 -0.967,1.731 -0.582,0.301 -1.269,0.452 -2.059,0.452 -0.249,0 -0.519,-0.015 -0.81,-0.047 -0.291,-0.031 -0.557,-0.099 -0.795,-0.202 -0.24,-0.105 -0.442,-0.255 -0.608,-0.453 -0.167,-0.197 -0.25,-0.462 -0.25,-0.795 0,-0.395 0.146,-0.717 0.437,-0.966 0.291,-0.25 0.671,-0.452 1.138,-0.609 0.468,-0.155 1.003,-0.295 1.606,-0.42 0.603,-0.125 1.216,-0.261 1.839,-0.406 0.644,-0.145 1.273,-0.322 1.887,-0.53 0.613,-0.208 1.159,-0.483 1.637,-0.826 0.478,-0.343 0.863,-0.769 1.154,-1.279 0.291,-0.509 0.436,-1.138 0.436,-1.886 0,-1.06 -0.214,-1.949 -0.64,-2.666 -0.425,-0.717 -0.981,-1.294 -1.668,-1.731 -0.685,-0.436 -1.47,-0.743 -2.353,-0.919 -0.885,-0.177 -1.783,-0.265 -2.697,-0.265 -0.936,0 -1.851,0.093 -2.744,0.28 -0.895,0.187 -1.69,0.499 -2.385,0.936 -0.697,0.436 -1.269,1.013 -1.715,1.73 -0.447,0.717 -0.691,1.616 -0.733,2.697 l 4.21,0 c 0,-0.478 0.097,-0.888 0.295,-1.231"
       id="path3055"
       style="fill:#ffffff;fill-opacity:0.94117647;fill-rule:nonzero;stroke:none" /><path
       d="m 240.502,30.04 0,-2.963 -3.242,0 0,-7.982 c 0,-0.748 0.124,-1.247 0.373,-1.497 0.25,-0.249 0.749,-0.374 1.498,-0.374 0.248,0 0.488,0.01 0.717,0.031 0.229,0.021 0.446,0.052 0.654,0.094 l 0,-3.43 c -0.374,-0.063 -0.79,-0.104 -1.247,-0.125 -0.458,-0.02 -0.904,-0.031 -1.34,-0.031 -0.686,0 -1.336,0.047 -1.95,0.14 -0.613,0.094 -1.153,0.276 -1.621,0.546 -0.468,0.27 -0.837,0.655 -1.107,1.154 -0.27,0.499 -0.404,1.153 -0.404,1.964 l 0,9.51 -2.682,0 0,2.963 2.682,0 0,4.833 4.427,0 0,-4.833 3.242,0"
       id="path3057"
       style="fill:#ffffff;fill-opacity:0.94117647;fill-rule:nonzero;stroke:none" /><path
       d="m 246.115,20.077 c 0.124,-0.613 0.337,-1.164 0.639,-1.652 0.301,-0.489 0.702,-0.879 1.2,-1.17 0.5,-0.291 1.123,-0.436 1.871,-0.436 0.749,0 1.377,0.145 1.886,0.436 0.51,0.291 0.914,0.681 1.217,1.17 0.301,0.488 0.514,1.039 0.639,1.652 0.125,0.613 0.187,1.242 0.187,1.887 0,0.644 -0.062,1.278 -0.187,1.902 -0.125,0.623 -0.338,1.174 -0.639,1.653 -0.303,0.477 -0.707,0.867 -1.217,1.169 -0.509,0.301 -1.137,0.452 -1.886,0.452 -0.748,0 -1.371,-0.151 -1.871,-0.452 -0.498,-0.302 -0.899,-0.692 -1.2,-1.169 -0.302,-0.479 -0.515,-1.03 -0.639,-1.653 -0.125,-0.624 -0.187,-1.258 -0.187,-1.902 0,-0.645 0.062,-1.274 0.187,-1.887 z m -4.023,5.395 c 0.395,1.049 0.956,1.943 1.684,2.681 0.727,0.738 1.6,1.31 2.619,1.715 1.019,0.405 2.162,0.608 3.43,0.608 1.267,0 2.417,-0.203 3.445,-0.608 1.029,-0.405 1.908,-0.977 2.635,-1.715 0.728,-0.738 1.289,-1.632 1.684,-2.681 0.395,-1.051 0.593,-2.22 0.593,-3.508 0,-1.29 -0.198,-2.453 -0.593,-3.493 -0.395,-1.039 -0.956,-1.928 -1.684,-2.666 -0.727,-0.738 -1.606,-1.305 -2.635,-1.699 -1.028,-0.395 -2.178,-0.592 -3.445,-0.592 -1.268,0 -2.411,0.197 -3.43,0.592 -1.019,0.394 -1.892,0.961 -2.619,1.699 -0.728,0.738 -1.289,1.627 -1.684,2.666 -0.394,1.04 -0.592,2.203 -0.592,3.493 0,1.288 0.198,2.457 0.592,3.508"
       id="path3059"
       style="fill:#ffffff;fill-opacity:0.94117647;fill-rule:nonzero;stroke:none" /><path
       d="M 269.876,45.563 269.876,0"
       id="path3061"
       style="fill:#ffffff;fill-opacity:0.94117647;fill-rule:nonzero;stroke:none" /><g
       id="g3063"
       style="fill:#acacb2;fill-opacity:1;stroke:#acacb2;stroke-opacity:1"><g
         clip-path="url(#clipPath3067)"
         id="g3065"
         style="fill:#acacb2;fill-opacity:1;stroke:#acacb2;stroke-opacity:1"><path
           d="M 269.876,45.563 269.876,0"
           id="path3071"
           style="fill:#acacb2;fill-opacity:1;stroke:#acacb2;stroke-width:1;stroke-linecap:butt;stroke-linejoin:miter;stroke-miterlimit:10;stroke-opacity:1;stroke-dasharray:none" /></g></g><path
       d="m 289.004,32.157 -1.785,5.199 -0.04,0 -1.845,-5.199 3.67,0 z m -0.177,8.691 5.297,-14.167 -3.235,0 -1.07,3.154 -5.299,0 -1.111,-3.154 -3.135,0 5.357,14.167 3.196,0"
       id="path3087"
       style="fill:#acacb2;fill-opacity:1;fill-rule:nonzero;stroke:none" /><path
       d="m 297.032,29.23 c 0.125,-0.218 0.287,-0.396 0.485,-0.535 0.198,-0.139 0.427,-0.242 0.685,-0.308 0.257,-0.066 0.525,-0.099 0.803,-0.099 0.199,0 0.408,0.023 0.625,0.069 0.218,0.046 0.417,0.12 0.595,0.219 0.18,0.099 0.328,0.231 0.447,0.397 0.12,0.165 0.178,0.373 0.178,0.625 0,0.423 -0.281,0.74 -0.843,0.952 -0.562,0.211 -1.346,0.423 -2.35,0.635 -0.41,0.092 -0.811,0.201 -1.201,0.327 -0.391,0.126 -0.738,0.291 -1.041,0.496 -0.305,0.205 -0.55,0.463 -0.735,0.774 -0.185,0.311 -0.278,0.691 -0.278,1.141 0,0.662 0.129,1.204 0.388,1.627 0.257,0.424 0.597,0.758 1.021,1.002 0.423,0.245 0.898,0.417 1.428,0.516 0.529,0.099 1.072,0.149 1.628,0.149 0.555,0 1.094,-0.053 1.617,-0.159 0.522,-0.106 0.988,-0.284 1.398,-0.536 0.41,-0.251 0.751,-0.585 1.023,-1.001 0.27,-0.417 0.432,-0.943 0.486,-1.578 l -2.68,0 c -0.039,0.542 -0.244,0.91 -0.615,1.101 -0.37,0.192 -0.806,0.288 -1.308,0.288 -0.16,0 -0.331,-0.01 -0.517,-0.03 -0.185,-0.02 -0.354,-0.063 -0.506,-0.129 -0.152,-0.066 -0.281,-0.162 -0.387,-0.287 -0.106,-0.126 -0.159,-0.295 -0.159,-0.507 0,-0.251 0.093,-0.456 0.279,-0.614 0.184,-0.159 0.426,-0.288 0.723,-0.388 0.298,-0.099 0.639,-0.188 1.023,-0.267 0.383,-0.08 0.774,-0.166 1.171,-0.258 0.41,-0.093 0.809,-0.206 1.2,-0.338 0.389,-0.132 0.737,-0.307 1.042,-0.525 0.303,-0.218 0.549,-0.49 0.734,-0.814 0.185,-0.324 0.277,-0.724 0.277,-1.2 0,-0.675 -0.135,-1.241 -0.406,-1.697 -0.271,-0.456 -0.625,-0.823 -1.062,-1.101 -0.436,-0.278 -0.936,-0.473 -1.498,-0.586 -0.563,-0.112 -1.135,-0.168 -1.717,-0.168 -0.595,0 -1.177,0.059 -1.746,0.178 -0.569,0.119 -1.074,0.318 -1.518,0.596 -0.443,0.277 -0.806,0.644 -1.092,1.101 -0.283,0.456 -0.439,1.028 -0.465,1.716 l 2.678,0 c 0,-0.304 0.063,-0.565 0.19,-0.784"
       id="path3089"
       style="fill:#acacb2;fill-opacity:1;fill-rule:nonzero;stroke:none" /><path
       d="m 307.29,29.23 c 0.125,-0.218 0.287,-0.396 0.486,-0.535 0.198,-0.139 0.426,-0.242 0.683,-0.308 0.259,-0.066 0.527,-0.099 0.805,-0.099 0.197,0 0.406,0.023 0.625,0.069 0.218,0.046 0.416,0.12 0.595,0.219 0.179,0.099 0.327,0.231 0.446,0.397 0.119,0.165 0.179,0.373 0.179,0.625 0,0.423 -0.281,0.74 -0.843,0.952 -0.562,0.211 -1.347,0.423 -2.351,0.635 -0.411,0.092 -0.811,0.201 -1.202,0.327 -0.389,0.126 -0.736,0.291 -1.041,0.496 -0.304,0.205 -0.548,0.463 -0.734,0.774 -0.186,0.311 -0.277,0.691 -0.277,1.141 0,0.662 0.129,1.204 0.386,1.627 0.258,0.424 0.598,0.758 1.022,1.002 0.424,0.245 0.899,0.417 1.429,0.516 0.529,0.099 1.071,0.149 1.627,0.149 0.555,0 1.094,-0.053 1.618,-0.159 0.521,-0.106 0.988,-0.284 1.398,-0.536 0.41,-0.251 0.75,-0.585 1.022,-1.001 0.271,-0.417 0.433,-0.943 0.486,-1.578 l -2.679,0 c -0.04,0.542 -0.245,0.91 -0.615,1.101 -0.37,0.192 -0.808,0.288 -1.31,0.288 -0.158,0 -0.33,-0.01 -0.515,-0.03 -0.186,-0.02 -0.355,-0.063 -0.506,-0.129 -0.152,-0.066 -0.281,-0.162 -0.387,-0.287 -0.106,-0.126 -0.159,-0.295 -0.159,-0.507 0,-0.251 0.093,-0.456 0.278,-0.614 0.185,-0.159 0.426,-0.288 0.724,-0.388 0.298,-0.099 0.638,-0.188 1.022,-0.267 0.383,-0.08 0.774,-0.166 1.17,-0.258 0.411,-0.093 0.811,-0.206 1.202,-0.338 0.389,-0.132 0.736,-0.307 1.041,-0.525 0.304,-0.218 0.548,-0.49 0.734,-0.814 0.185,-0.324 0.277,-0.724 0.277,-1.2 0,-0.675 -0.134,-1.241 -0.406,-1.697 -0.271,-0.456 -0.625,-0.823 -1.062,-1.101 -0.436,-0.278 -0.936,-0.473 -1.498,-0.586 -0.562,-0.112 -1.134,-0.168 -1.716,-0.168 -0.595,0 -1.177,0.059 -1.746,0.178 -0.57,0.119 -1.076,0.318 -1.518,0.596 -0.443,0.277 -0.808,0.644 -1.092,1.101 -0.284,0.456 -0.44,1.028 -0.466,1.716 l 2.679,0 c 0,-0.304 0.063,-0.565 0.189,-0.784"
       id="path3091"
       style="fill:#acacb2;fill-opacity:1;fill-rule:nonzero;stroke:none" /><path
       d="m 321.377,34.538 c -0.337,0.371 -0.849,0.556 -1.538,0.556 -0.45,0 -0.823,-0.076 -1.121,-0.228 -0.298,-0.153 -0.536,-0.341 -0.714,-0.566 -0.178,-0.225 -0.304,-0.463 -0.377,-0.714 -0.073,-0.251 -0.116,-0.476 -0.128,-0.675 l 4.583,0 c -0.132,0.715 -0.368,1.257 -0.705,1.627 z m -3.185,-5.397 c 0.424,-0.41 1.032,-0.615 1.826,-0.615 0.568,0 1.059,0.142 1.469,0.427 0.41,0.284 0.661,0.585 0.754,0.903 l 2.48,0 c -0.397,-1.231 -1.006,-2.111 -1.826,-2.64 -0.82,-0.529 -1.812,-0.793 -2.977,-0.793 -0.806,0 -1.534,0.129 -2.181,0.387 -0.649,0.257 -1.198,0.625 -1.648,1.101 -0.45,0.476 -0.797,1.045 -1.042,1.706 -0.244,0.662 -0.367,1.389 -0.367,2.183 0,0.767 0.126,1.481 0.377,2.143 0.252,0.661 0.609,1.233 1.072,1.716 0.463,0.483 1.015,0.863 1.657,1.141 0.641,0.278 1.352,0.417 2.132,0.417 0.874,0 1.634,-0.169 2.283,-0.506 0.647,-0.337 1.18,-0.791 1.596,-1.359 0.418,-0.569 0.719,-1.217 0.904,-1.945 0.184,-0.727 0.251,-1.488 0.198,-2.282 l -7.4,0 c 0.039,-0.913 0.27,-1.574 0.693,-1.984"
       id="path3093"
       style="fill:#acacb2;fill-opacity:1;fill-rule:nonzero;stroke:none" /><path
       d="m 331.804,36.939 0,-1.885 -2.063,0 0,-5.079 c 0,-0.476 0.08,-0.794 0.238,-0.953 0.158,-0.159 0.477,-0.238 0.952,-0.238 0.159,0 0.312,0.007 0.456,0.02 0.147,0.013 0.285,0.033 0.417,0.059 l 0,-2.182 c -0.237,-0.04 -0.503,-0.066 -0.794,-0.08 -0.291,-0.013 -0.575,-0.019 -0.852,-0.019 -0.437,0 -0.851,0.029 -1.241,0.089 -0.39,0.06 -0.734,0.175 -1.032,0.347 -0.297,0.172 -0.532,0.417 -0.704,0.734 -0.172,0.318 -0.258,0.734 -0.258,1.25 l 0,6.052 -1.706,0 0,1.885 1.706,0 0,3.076 2.818,0 0,-3.076 2.063,0"
       id="path3095"
       style="fill:#acacb2;fill-opacity:1;fill-rule:nonzero;stroke:none" /><path
       d="m 286.147,19.588 3.314,-9.742 0.039,0 3.135,9.742 4.386,0 0,-14.167 -2.917,0 0,10.04 -0.039,0 -3.473,-10.04 -2.4,0 -3.473,9.941 -0.04,0 0,-9.941 -2.917,0 0,14.167 4.385,0"
       id="path3097"
       style="fill:#acacb2;fill-opacity:1;fill-rule:nonzero;stroke:none" /><path
       d="m 305.007,10.193 c -0.178,-0.06 -0.37,-0.109 -0.575,-0.149 -0.205,-0.04 -0.42,-0.073 -0.644,-0.099 -0.226,-0.026 -0.451,-0.06 -0.676,-0.099 -0.211,-0.04 -0.42,-0.093 -0.625,-0.159 -0.205,-0.066 -0.383,-0.156 -0.535,-0.268 -0.153,-0.112 -0.275,-0.254 -0.368,-0.426 -0.091,-0.173 -0.138,-0.391 -0.138,-0.655 0,-0.252 0.047,-0.463 0.138,-0.635 0.093,-0.172 0.219,-0.308 0.377,-0.407 0.16,-0.099 0.344,-0.169 0.556,-0.208 0.212,-0.04 0.43,-0.06 0.655,-0.06 0.555,0 0.985,0.093 1.289,0.278 0.305,0.185 0.53,0.407 0.675,0.665 0.146,0.258 0.236,0.519 0.269,0.783 0.032,0.265 0.049,0.477 0.049,0.635 l 0,1.052 c -0.12,-0.106 -0.268,-0.189 -0.447,-0.248 z m -5.565,3.978 c 0.291,0.437 0.661,0.788 1.111,1.052 0.449,0.265 0.955,0.453 1.518,0.566 0.562,0.112 1.127,0.169 1.697,0.169 0.516,0 1.037,-0.037 1.566,-0.11 0.53,-0.073 1.012,-0.215 1.45,-0.427 0.435,-0.211 0.793,-0.505 1.071,-0.882 0.278,-0.377 0.417,-0.877 0.417,-1.498 l 0,-5.338 c 0,-0.463 0.025,-0.907 0.079,-1.329 0.053,-0.424 0.146,-0.742 0.278,-0.953 l -2.857,0 c -0.054,0.159 -0.097,0.321 -0.129,0.486 -0.033,0.165 -0.057,0.334 -0.07,0.506 -0.449,-0.463 -0.979,-0.787 -1.587,-0.972 -0.609,-0.185 -1.231,-0.278 -1.865,-0.278 -0.49,0 -0.947,0.06 -1.37,0.178 -0.423,0.119 -0.793,0.305 -1.111,0.556 -0.317,0.251 -0.565,0.569 -0.744,0.953 -0.179,0.383 -0.269,0.839 -0.269,1.369 0,0.582 0.104,1.061 0.309,1.438 0.205,0.377 0.469,0.678 0.793,0.903 0.324,0.225 0.695,0.394 1.111,0.506 0.417,0.112 0.837,0.202 1.26,0.268 0.424,0.066 0.84,0.119 1.25,0.159 0.41,0.039 0.775,0.099 1.092,0.178 0.317,0.08 0.568,0.195 0.754,0.348 0.185,0.151 0.271,0.373 0.258,0.664 0,0.304 -0.049,0.546 -0.149,0.725 -0.099,0.178 -0.231,0.317 -0.396,0.416 -0.166,0.099 -0.358,0.165 -0.576,0.198 -0.218,0.034 -0.454,0.05 -0.705,0.05 -0.555,0 -0.992,-0.119 -1.309,-0.357 -0.318,-0.238 -0.503,-0.635 -0.556,-1.191 l -2.817,0 c 0.039,0.662 0.205,1.211 0.496,1.647"
       id="path3099"
       style="fill:#acacb2;fill-opacity:1;fill-rule:nonzero;stroke:none" /><path
       d="m 312.736,15.68 0,-1.429 0.059,0 c 0.358,0.595 0.821,1.028 1.389,1.299 0.569,0.271 1.151,0.408 1.746,0.408 0.754,0 1.373,-0.103 1.856,-0.308 0.482,-0.206 0.863,-0.49 1.14,-0.854 0.279,-0.363 0.474,-0.807 0.586,-1.329 0.113,-0.523 0.169,-1.101 0.169,-1.736 l 0,-6.31 -2.817,0 0,5.794 c 0,0.847 -0.133,1.478 -0.398,1.895 -0.264,0.416 -0.733,0.625 -1.409,0.625 -0.766,0 -1.322,-0.228 -1.666,-0.685 -0.344,-0.456 -0.516,-1.207 -0.516,-2.252 l 0,-5.377 -2.818,0 0,10.259 2.679,0"
       id="path3101"
       style="fill:#acacb2;fill-opacity:1;fill-rule:nonzero;stroke:none" /><path
       d="m 327.37,10.193 c -0.178,-0.06 -0.37,-0.109 -0.576,-0.149 -0.205,-0.04 -0.42,-0.073 -0.645,-0.099 -0.225,-0.026 -0.449,-0.06 -0.674,-0.099 -0.212,-0.04 -0.42,-0.093 -0.625,-0.159 -0.205,-0.066 -0.385,-0.156 -0.536,-0.268 -0.152,-0.112 -0.274,-0.254 -0.367,-0.426 -0.093,-0.173 -0.139,-0.391 -0.139,-0.655 0,-0.252 0.046,-0.463 0.139,-0.635 0.093,-0.172 0.218,-0.308 0.377,-0.407 0.159,-0.099 0.344,-0.169 0.555,-0.208 0.211,-0.04 0.43,-0.06 0.655,-0.06 0.556,0 0.986,0.093 1.291,0.278 0.303,0.185 0.528,0.407 0.674,0.665 0.145,0.258 0.234,0.519 0.267,0.783 0.033,0.265 0.051,0.477 0.051,0.635 l 0,1.052 c -0.119,-0.106 -0.269,-0.189 -0.447,-0.248 z m -5.566,3.978 c 0.29,0.437 0.661,0.788 1.111,1.052 0.45,0.265 0.956,0.453 1.518,0.566 0.562,0.112 1.128,0.169 1.696,0.169 0.516,0 1.039,-0.037 1.569,-0.11 0.528,-0.073 1.011,-0.215 1.447,-0.427 0.438,-0.211 0.795,-0.505 1.072,-0.882 0.278,-0.377 0.416,-0.877 0.416,-1.498 l 0,-5.338 c 0,-0.463 0.028,-0.907 0.08,-1.329 0.053,-0.424 0.146,-0.742 0.278,-0.953 l -2.858,0 c -0.052,0.159 -0.095,0.321 -0.129,0.486 -0.033,0.165 -0.056,0.334 -0.068,0.506 -0.451,-0.463 -0.98,-0.787 -1.588,-0.972 -0.609,-0.185 -1.23,-0.278 -1.865,-0.278 -0.49,0 -0.946,0.06 -1.369,0.178 -0.424,0.119 -0.794,0.305 -1.112,0.556 -0.317,0.251 -0.565,0.569 -0.744,0.953 -0.178,0.383 -0.267,0.839 -0.267,1.369 0,0.582 0.101,1.061 0.306,1.438 0.205,0.377 0.471,0.678 0.795,0.903 0.324,0.225 0.694,0.394 1.111,0.506 0.417,0.112 0.837,0.202 1.26,0.268 0.423,0.066 0.84,0.119 1.25,0.159 0.411,0.039 0.774,0.099 1.091,0.178 0.318,0.08 0.57,0.195 0.754,0.348 0.185,0.151 0.271,0.373 0.259,0.664 0,0.304 -0.051,0.546 -0.15,0.725 -0.098,0.178 -0.231,0.317 -0.397,0.416 -0.165,0.099 -0.356,0.165 -0.574,0.198 -0.219,0.034 -0.454,0.05 -0.705,0.05 -0.556,0 -0.992,-0.119 -1.31,-0.357 -0.317,-0.238 -0.503,-0.635 -0.556,-1.191 l -2.817,0 c 0.04,0.662 0.204,1.211 0.496,1.647"
       id="path3103"
       style="fill:#acacb2;fill-opacity:1;fill-rule:nonzero;stroke:none" /><path
       d="m 338.252,8.08 c 0.305,0.159 0.557,0.37 0.754,0.635 0.2,0.264 0.348,0.565 0.448,0.903 0.099,0.337 0.148,0.691 0.148,1.061 0,0.424 -0.039,0.823 -0.119,1.201 -0.079,0.377 -0.211,0.71 -0.397,1.002 -0.185,0.29 -0.429,0.522 -0.734,0.694 -0.305,0.172 -0.687,0.258 -1.15,0.258 -0.398,0 -0.739,-0.079 -1.023,-0.238 -0.284,-0.158 -0.522,-0.374 -0.714,-0.645 -0.192,-0.271 -0.331,-0.582 -0.417,-0.932 -0.087,-0.351 -0.129,-0.718 -0.129,-1.101 0,-0.371 0.037,-0.738 0.109,-1.102 0.073,-0.364 0.199,-0.691 0.377,-0.982 0.179,-0.291 0.414,-0.529 0.705,-0.714 0.291,-0.186 0.654,-0.278 1.092,-0.278 0.396,0 0.746,0.079 1.05,0.238 z m 3.86,-3.413 C 342,4.138 341.758,3.645 341.388,3.188 341.018,2.732 340.482,2.345 339.781,2.028 339.08,1.71 338.14,1.552 336.963,1.552 c -0.503,0 -1.015,0.063 -1.538,0.188 -0.522,0.126 -0.999,0.321 -1.428,0.586 -0.43,0.264 -0.788,0.605 -1.072,1.021 -0.284,0.417 -0.446,0.917 -0.486,1.499 l 2.798,0 c 0.132,-0.53 0.39,-0.897 0.773,-1.102 0.384,-0.205 0.827,-0.307 1.33,-0.307 0.793,0 1.372,0.238 1.737,0.714 0.363,0.476 0.539,1.079 0.525,1.806 l 0,1.349 -0.039,0 c -0.305,-0.543 -0.738,-0.943 -1.301,-1.2 -0.562,-0.258 -1.154,-0.387 -1.775,-0.387 -0.768,0 -1.429,0.135 -1.985,0.407 -0.554,0.27 -1.011,0.641 -1.369,1.11 -0.357,0.47 -0.618,1.019 -0.783,1.647 -0.166,0.629 -0.248,1.293 -0.248,1.994 0,0.662 0.096,1.3 0.287,1.916 0.192,0.615 0.473,1.157 0.844,1.626 0.37,0.47 0.83,0.844 1.379,1.122 0.549,0.277 1.18,0.417 1.894,0.417 0.675,0 1.268,-0.126 1.777,-0.378 0.509,-0.251 0.935,-0.674 1.28,-1.269 l 0.039,0 0,1.369 2.679,0 0,-9.604 c 0,-0.41 -0.056,-0.88 -0.169,-1.409"
       id="path3105"
       style="fill:#acacb2;fill-opacity:1;fill-rule:nonzero;stroke:none" /><path
       d="m 350.347,13.278 c -0.337,0.371 -0.85,0.556 -1.538,0.556 -0.449,0 -0.823,-0.076 -1.121,-0.228 -0.297,-0.152 -0.535,-0.341 -0.715,-0.565 -0.178,-0.226 -0.304,-0.464 -0.377,-0.715 -0.072,-0.251 -0.115,-0.476 -0.129,-0.675 l 4.584,0 c -0.133,0.715 -0.367,1.257 -0.704,1.627 z m -3.184,-5.397 c 0.422,-0.41 1.031,-0.615 1.825,-0.615 0.568,0 1.057,0.142 1.468,0.427 0.41,0.284 0.662,0.585 0.753,0.903 l 2.481,0 c -0.397,-1.231 -1.005,-2.111 -1.825,-2.639 -0.821,-0.53 -1.813,-0.794 -2.976,-0.794 -0.807,0 -1.535,0.129 -2.183,0.387 -0.649,0.258 -1.198,0.625 -1.647,1.101 -0.45,0.476 -0.797,1.045 -1.042,1.706 -0.245,0.662 -0.367,1.39 -0.367,2.183 0,0.767 0.126,1.482 0.378,2.143 0.25,0.662 0.607,1.234 1.07,1.716 0.463,0.483 1.016,0.864 1.657,1.142 0.642,0.277 1.353,0.417 2.134,0.417 0.873,0 1.633,-0.169 2.281,-0.507 0.649,-0.337 1.181,-0.79 1.598,-1.359 0.416,-0.569 0.717,-1.217 0.902,-1.945 0.186,-0.727 0.252,-1.488 0.2,-2.281 l -7.403,0 c 0.04,-0.913 0.272,-1.575 0.696,-1.985"
       id="path3107"
       style="fill:#acacb2;fill-opacity:1;fill-rule:nonzero;stroke:none" /><path
       d="m 357.877,15.68 0,-1.389 0.04,0 c 0.371,0.528 0.816,0.939 1.339,1.23 0.523,0.291 1.121,0.437 1.795,0.437 0.649,0 1.241,-0.126 1.777,-0.378 0.536,-0.251 0.942,-0.694 1.22,-1.329 0.304,0.449 0.718,0.846 1.24,1.19 0.523,0.344 1.141,0.517 1.855,0.517 0.543,0 1.045,-0.067 1.509,-0.199 0.463,-0.132 0.859,-0.344 1.19,-0.635 0.33,-0.291 0.588,-0.672 0.774,-1.141 0.185,-0.47 0.278,-1.035 0.278,-1.696 l 0,-6.866 -2.817,0 0,5.814 c 0,0.344 -0.014,0.667 -0.04,0.972 -0.027,0.304 -0.099,0.569 -0.218,0.794 -0.119,0.225 -0.295,0.403 -0.527,0.536 -0.231,0.132 -0.545,0.198 -0.942,0.198 -0.396,0 -0.718,-0.076 -0.963,-0.228 -0.244,-0.152 -0.435,-0.351 -0.575,-0.595 -0.139,-0.245 -0.231,-0.523 -0.278,-0.834 -0.046,-0.311 -0.069,-0.625 -0.069,-0.942 l 0,-5.715 -2.818,0 0,5.754 c 0,0.305 -0.006,0.605 -0.02,0.903 -0.013,0.298 -0.069,0.572 -0.169,0.823 -0.098,0.252 -0.264,0.454 -0.495,0.606 -0.232,0.152 -0.573,0.228 -1.022,0.228 -0.132,0 -0.308,-0.03 -0.526,-0.089 -0.218,-0.06 -0.43,-0.172 -0.635,-0.338 -0.205,-0.165 -0.381,-0.403 -0.526,-0.714 -0.146,-0.311 -0.218,-0.718 -0.218,-1.22 l 0,-5.953 -2.818,0 0,10.259 2.659,0"
       id="path3109"
       style="fill:#acacb2;fill-opacity:1;fill-rule:nonzero;stroke:none" /><path
       d="m 378.92,13.278 c -0.337,0.371 -0.85,0.556 -1.539,0.556 -0.449,0 -0.822,-0.076 -1.121,-0.228 -0.297,-0.152 -0.535,-0.341 -0.714,-0.565 -0.178,-0.226 -0.303,-0.464 -0.377,-0.715 -0.073,-0.251 -0.116,-0.476 -0.128,-0.675 l 4.583,0 c -0.132,0.715 -0.368,1.257 -0.704,1.627 z m -3.185,-5.397 c 0.424,-0.41 1.031,-0.615 1.826,-0.615 0.568,0 1.058,0.142 1.468,0.427 0.41,0.284 0.661,0.585 0.754,0.903 l 2.48,0 c -0.397,-1.231 -1.005,-2.111 -1.825,-2.639 -0.82,-0.53 -1.813,-0.794 -2.977,-0.794 -0.806,0 -1.535,0.129 -2.182,0.387 -0.649,0.258 -1.198,0.625 -1.648,1.101 -0.449,0.476 -0.797,1.045 -1.041,1.706 -0.245,0.662 -0.367,1.39 -0.367,2.183 0,0.767 0.125,1.482 0.377,2.143 0.251,0.662 0.608,1.234 1.071,1.716 0.463,0.483 1.015,0.864 1.658,1.142 0.64,0.277 1.351,0.417 2.132,0.417 0.873,0 1.633,-0.169 2.282,-0.507 0.648,-0.337 1.181,-0.79 1.597,-1.359 0.417,-0.569 0.718,-1.217 0.903,-1.945 0.185,-0.727 0.252,-1.488 0.199,-2.281 l -7.401,0 c 0.04,-0.913 0.27,-1.575 0.694,-1.985"
       id="path3111"
       style="fill:#acacb2;fill-opacity:1;fill-rule:nonzero;stroke:none" /><path
       d="m 386.39,15.68 0,-1.429 0.06,0 c 0.357,0.595 0.82,1.028 1.388,1.299 0.57,0.271 1.152,0.408 1.746,0.408 0.754,0 1.374,-0.103 1.856,-0.308 0.482,-0.206 0.863,-0.49 1.141,-0.854 0.278,-0.363 0.473,-0.807 0.586,-1.329 0.112,-0.523 0.168,-1.101 0.168,-1.736 l 0,-6.31 -2.817,0 0,5.794 c 0,0.847 -0.133,1.478 -0.397,1.895 -0.265,0.416 -0.734,0.625 -1.41,0.625 -0.766,0 -1.322,-0.228 -1.666,-0.685 -0.343,-0.456 -0.515,-1.207 -0.515,-2.252 l 0,-5.377 -2.819,0 0,10.259 2.679,0"
       id="path3113"
       style="fill:#acacb2;fill-opacity:1;fill-rule:nonzero;stroke:none" /><path
       d="m 400.715,15.68 0,-1.886 -2.062,0 0,-5.079 c 0,-0.476 0.079,-0.794 0.238,-0.953 0.158,-0.158 0.476,-0.238 0.951,-0.238 0.16,0 0.312,0.007 0.457,0.02 0.146,0.013 0.284,0.033 0.416,0.06 l 0,-2.183 c -0.237,-0.04 -0.502,-0.066 -0.793,-0.08 -0.291,-0.012 -0.576,-0.019 -0.853,-0.019 -0.436,0 -0.85,0.03 -1.24,0.089 -0.391,0.06 -0.735,0.175 -1.032,0.347 -0.297,0.172 -0.533,0.417 -0.705,0.734 -0.172,0.318 -0.258,0.735 -0.258,1.251 l 0,6.051 -1.706,0 0,1.886 1.706,0 0,3.075 2.819,0 0,-3.075 2.062,0"
       id="path3115"
       style="fill:#acacb2;fill-opacity:1;fill-rule:nonzero;stroke:none" /></g><g
     id="layer1" /></svg>